<svg xmlns="http://www.w3.org/2000/svg" xmlns:xlink="http://www.w3.org/1999/xlink" width="300" zoomAndPan="magnify" viewBox="0 0 375 374.999991" height="250" preserveAspectRatio="xMidYMid meet" version="1.0"><defs><g/><clipPath id="b814461e94"><path d="M 138.363281 121.042969 L 236.636719 121.042969 L 236.636719 125.078125 L 138.363281 125.078125 Z M 232.515625 125.078125 L 236.636719 125.078125 L 236.636719 249.835938 L 232.515625 249.835938 Z M 138.363281 125.078125 L 142.398438 125.078125 L 142.398438 249.835938 L 138.363281 249.835938 Z M 138.363281 249.835938 L 236.636719 249.835938 L 236.636719 253.957031 L 138.363281 253.957031 Z M 138.363281 249.835938 " clip-rule="nonzero"/></clipPath><clipPath id="cdbb6d639a"><path d="M 142.296875 125.085938 L 232.703125 125.085938 L 232.703125 206 L 142.296875 206 Z M 142.296875 125.085938 " clip-rule="nonzero"/></clipPath></defs><g clip-path="url(#b814461e94)"><path fill="#000000" d="M 138.363281 121.042969 L 236.265625 121.042969 L 236.265625 254.160156 L 138.363281 254.160156 Z M 138.363281 121.042969 " fill-opacity="1" fill-rule="nonzero"/></g><g clip-path="url(#cdbb6d639a)"><path fill="#c70039" d="M 142.296875 125.085938 L 233.199219 125.085938 L 233.199219 205.890625 L 142.296875 205.890625 Z M 142.296875 125.085938 " fill-opacity="1" fill-rule="nonzero"/></g><g fill="#000000" fill-opacity="1"><g transform="translate(161.807027, 193.595042)"><g><path d="M 6.6875 -50.9375 L 28.8125 -50.9375 C 34.101562 -50.9375 38.273438 -49.804688 41.328125 -47.546875 C 44.390625 -45.296875 45.921875 -42.179688 45.921875 -38.203125 C 45.921875 -35.335938 45.117188 -32.898438 43.515625 -30.890625 C 41.910156 -28.878906 39.726562 -27.53125 36.96875 -26.84375 C 40.363281 -26.269531 43.03125 -24.84375 44.96875 -22.5625 C 46.90625 -20.28125 47.875 -17.414062 47.875 -13.96875 C 47.875 -9.601562 46.222656 -6.179688 42.921875 -3.703125 C 39.628906 -1.234375 35.097656 0 29.328125 0 L 6.6875 0 Z M 15.28125 -43.296875 L 15.28125 -29.828125 L 28.375 -29.828125 C 31.09375 -29.828125 33.226562 -30.429688 34.78125 -31.640625 C 36.332031 -32.859375 37.109375 -34.535156 37.109375 -36.671875 C 37.109375 -38.804688 36.34375 -40.441406 34.8125 -41.578125 C 33.289062 -42.722656 31.144531 -43.296875 28.375 -43.296875 Z M 15.28125 -22.265625 L 15.28125 -7.640625 L 28.375 -7.640625 C 31.769531 -7.640625 34.398438 -8.28125 36.265625 -9.5625 C 38.140625 -10.851562 39.078125 -12.6875 39.078125 -15.0625 C 39.078125 -17.289062 38.128906 -19.046875 36.234375 -20.328125 C 34.347656 -21.617188 31.726562 -22.265625 28.375 -22.265625 Z M 15.28125 -22.265625 "/></g></g></g><g fill="#000000" fill-opacity="1"><g transform="translate(153.113579, 224.44254)"><g><path d="M 4.652344 0 C 6.402344 0 7.453125 -0.742188 7.453125 -2.3125 L 7.453125 -2.339844 C 7.453125 -3.339844 6.84375 -4.050781 5.804688 -4.28125 C 6.613281 -4.5625 7.105469 -5.242188 7.105469 -6.132812 L 7.105469 -6.164062 C 7.105469 -7.394531 6.3125 -8.113281 4.542969 -8.113281 L 0.582031 -8.113281 L 0.582031 0 Z M 1.851562 -6.933594 L 4.421875 -6.933594 C 5.332031 -6.933594 5.824219 -6.542969 5.824219 -5.824219 L 5.824219 -5.78125 C 5.824219 -5.09375 5.300781 -4.703125 4.371094 -4.703125 L 1.851562 -4.703125 Z M 1.851562 -3.640625 L 4.582031 -3.640625 C 5.574219 -3.640625 6.164062 -3.242188 6.164062 -2.511719 L 6.164062 -2.472656 C 6.164062 -1.671875 5.632812 -1.191406 4.640625 -1.191406 L 1.851562 -1.191406 Z M 1.851562 -3.640625 "/></g></g></g><g fill="#000000" fill-opacity="1"><g transform="translate(162.281434, 224.44254)"><g><path d="M 5.824219 -3.320312 C 6.972656 -3.652344 7.574219 -4.523438 7.574219 -5.691406 L 7.574219 -5.703125 C 7.574219 -7.125 6.613281 -8.113281 4.691406 -8.113281 L 0.582031 -8.113281 L 0.582031 0 L 1.851562 0 L 1.851562 -3.171875 L 4.523438 -3.171875 L 6.574219 0 L 7.984375 0 Z M 4.59375 -6.921875 C 5.59375 -6.921875 6.261719 -6.574219 6.261719 -5.632812 L 6.261719 -5.621094 C 6.261719 -4.664062 5.59375 -4.273438 4.59375 -4.273438 L 1.851562 -4.273438 L 1.851562 -6.921875 Z M 4.59375 -6.921875 "/></g></g></g><g fill="#000000" fill-opacity="1"><g transform="translate(171.74918, 224.44254)"><g><path d="M 8.933594 0 L 5.292969 -8.113281 L 3.773438 -8.113281 L 0.148438 0 L 1.492188 0 L 2.472656 -2.25 L 6.613281 -2.25 L 7.59375 0 Z M 6.113281 -3.363281 L 2.953125 -3.363281 L 4.53125 -6.933594 Z M 6.113281 -3.363281 "/></g></g></g><g fill="#000000" fill-opacity="1"><g transform="translate(182.136561, 224.44254)"><g><path d="M 6.703125 -1.351562 L 2.410156 -8.113281 L 0.582031 -8.113281 L 0.582031 0 L 1.851562 0 L 1.851562 -6.851562 L 6.171875 0 L 7.972656 0 L 7.972656 -8.113281 L 6.703125 -8.113281 Z M 6.703125 -1.351562 "/></g></g></g><g fill="#000000" fill-opacity="1"><g transform="translate(191.994152, 224.44254)"><g><path d="M 3.910156 0 C 6.753906 0 8.285156 -1.511719 8.285156 -4.082031 L 8.285156 -4.101562 C 8.285156 -6.625 6.824219 -8.113281 3.910156 -8.113281 L 0.582031 -8.113281 L 0.582031 0 Z M 1.859375 -6.921875 L 3.921875 -6.921875 C 5.871094 -6.921875 6.972656 -5.894531 6.972656 -4.101562 L 6.972656 -4.082031 C 6.972656 -2.242188 5.863281 -1.199219 3.921875 -1.199219 L 1.859375 -1.199219 Z M 1.859375 -6.921875 "/></g></g></g><g fill="#000000" fill-opacity="1"><g transform="translate(202.001684, 224.44254)"><g><path d="M 5.011719 0.121094 C 7.773438 0.121094 9.605469 -1.628906 9.605469 -4.0625 L 9.605469 -4.070312 C 9.605469 -6.511719 7.773438 -8.242188 5.011719 -8.242188 C 2.25 -8.242188 0.429688 -6.511719 0.429688 -4.070312 L 0.429688 -4.0625 C 0.429688 -1.628906 2.25 0.121094 5.011719 0.121094 Z M 5.011719 -1.082031 C 3.101562 -1.082031 1.742188 -2.25 1.742188 -4.050781 L 1.742188 -4.070312 C 1.742188 -5.894531 3.082031 -7.054688 5.011719 -7.054688 C 6.921875 -7.054688 8.292969 -5.882812 8.292969 -4.070312 L 8.292969 -4.050781 C 8.292969 -2.25 6.921875 -1.082031 5.011719 -1.082031 Z M 5.011719 -1.082031 "/></g></g></g><g fill="#000000" fill-opacity="1"><g transform="translate(213.328696, 224.44254)"><g><path d="M 6.703125 -1.351562 L 2.410156 -8.113281 L 0.582031 -8.113281 L 0.582031 0 L 1.851562 0 L 1.851562 -6.851562 L 6.171875 0 L 7.972656 0 L 7.972656 -8.113281 L 6.703125 -8.113281 Z M 6.703125 -1.351562 "/></g></g></g><g fill="#000000" fill-opacity="1"><g transform="translate(167.340141, 239.442539)"><g><path d="M 4.960938 0.128906 C 6.101562 0.128906 7.164062 -0.179688 8.003906 -0.648438 L 7.484375 -1.722656 C 6.671875 -1.269531 5.792969 -1.070312 4.960938 -1.070312 C 3.101562 -1.070312 1.742188 -2.242188 1.742188 -4.03125 L 1.742188 -4.050781 C 1.742188 -5.914062 3.082031 -7.054688 4.972656 -7.054688 C 5.871094 -7.054688 6.734375 -6.824219 7.484375 -6.394531 L 8.003906 -7.464844 C 7.132812 -7.964844 6.042969 -8.242188 4.972656 -8.242188 C 2.230469 -8.242188 0.429688 -6.554688 0.429688 -4.050781 L 0.429688 -4.03125 C 0.429688 -1.550781 2.25 0.128906 4.960938 0.128906 Z M 4.960938 0.128906 "/></g></g></g><g fill="#000000" fill-opacity="1"><g transform="translate(177.027797, 239.442539)"><g><path d="M 5.011719 0.121094 C 7.773438 0.121094 9.605469 -1.628906 9.605469 -4.0625 L 9.605469 -4.070312 C 9.605469 -6.511719 7.773438 -8.242188 5.011719 -8.242188 C 2.25 -8.242188 0.429688 -6.511719 0.429688 -4.070312 L 0.429688 -4.0625 C 0.429688 -1.628906 2.25 0.121094 5.011719 0.121094 Z M 5.011719 -1.082031 C 3.101562 -1.082031 1.742188 -2.25 1.742188 -4.050781 L 1.742188 -4.070312 C 1.742188 -5.894531 3.082031 -7.054688 5.011719 -7.054688 C 6.921875 -7.054688 8.292969 -5.882812 8.292969 -4.070312 L 8.292969 -4.050781 C 8.292969 -2.25 6.921875 -1.082031 5.011719 -1.082031 Z M 5.011719 -1.082031 "/></g></g></g><g fill="#000000" fill-opacity="1"><g transform="translate(188.354808, 239.442539)"><g><path d="M 5.011719 0.121094 C 7.773438 0.121094 9.605469 -1.628906 9.605469 -4.0625 L 9.605469 -4.070312 C 9.605469 -6.511719 7.773438 -8.242188 5.011719 -8.242188 C 2.25 -8.242188 0.429688 -6.511719 0.429688 -4.070312 L 0.429688 -4.0625 C 0.429688 -1.628906 2.25 0.121094 5.011719 0.121094 Z M 5.011719 -1.082031 C 3.101562 -1.082031 1.742188 -2.25 1.742188 -4.050781 L 1.742188 -4.070312 C 1.742188 -5.894531 3.082031 -7.054688 5.011719 -7.054688 C 6.921875 -7.054688 8.292969 -5.882812 8.292969 -4.070312 L 8.292969 -4.050781 C 8.292969 -2.25 6.921875 -1.082031 5.011719 -1.082031 Z M 5.011719 -1.082031 "/></g></g></g><g fill="#000000" fill-opacity="1"><g transform="translate(199.681817, 239.442539)"><g><path d="M 7.792969 -8.113281 L 6.125 -8.113281 L 1.859375 -4.121094 L 1.859375 -8.113281 L 0.582031 -8.113281 L 0.582031 0 L 1.859375 0 L 1.859375 -3.992188 L 6.042969 0 L 7.804688 0 L 3.480469 -4.082031 Z M 7.792969 -8.113281 "/></g></g></g></svg>